<?xml version="1.0" standalone="no"?><!DOCTYPE svg PUBLIC "-//W3C//DTD SVG 1.1//EN" "http://www.w3.org/Graphics/SVG/1.1/DTD/svg11.dtd"><svg width="200" height="200" viewBox="0 0 200 200" version="1.1" xmlns="http://www.w3.org/2000/svg" xmlns:xlink="http://www.w3.org/1999/xlink"><defs><style type="text/css"><![CDATA[
@font-face { font-family: ifont; src: url(http://at.alicdn.com/t/font_1442373896_4754455.eot?#iefix) format(embedded-opentype), url(http://at.alicdn.com/t/font_1442373896_4754455.woff) format(woff), url(http://at.alicdn.com/t/font_1442373896_4754455.ttf) format(truetype), url(http://at.alicdn.com/t/font_1442373896_4754455.svg#ifont) format(svg); }

]]></style></defs><g class="transform-group"><g transform="scale(0.1953125, 0.1953125)"><path d="M942.471461 0 80.61508 0C36.088298 0 0 34.646309 0 77.3632L0 946.08384C0 988.800366 36.088298 1023.44704 80.61508 1023.44704L942.471461 1023.44704C986.983753 1023.44704 1023.086555 988.814263 1023.086555 946.08384L1023.086555 77.3632C1023.086555 34.646309 986.983753 0 942.471461 0L942.471461 0ZM254.227482 159.401326C261.941014 141.132069 282.094782 130.181486 301.958568 133.966263 320.082465 137.430674 332.218222 147.922286 336.495462 165.175589 340.816197 182.526903 335.002053 197.109029 320.430442 208.393509 319.198018 209.339611 317.907595 210.89792 317.719109 212.289463 315.674734 227.594971 315.674734 242.956434 317.110144 258.303634 317.762604 265.191131 318.922536 272.02304 319.864978 278.938331L320.212955 278.938331C322.619809 289.22112 329.550387 317.091109 337.205917 331.54816 337.220418 331.562057 337.234918 331.589851 337.249415 331.617646 349.820149 358.08256 366.871109 381.639314 390.229182 400.53504 449.008596 448.051931 514.559086 459.586926 585.53227 429.824366 635.6992 408.799817 668.655689 370.883657 689.577911 322.893531 689.577911 322.893531 702.8736 289.262811 704.758491 267.319954 707.063845 249.9968 707.382821 232.618057 705.729938 215.141669 705.410962 211.6352 704.048018 209.339611 701.104713 207.099246 685.358665 195.119177 680.631954 173.84448 689.534427 156.534857 698.422382 139.253394 718.648649 129.847589 738.004955 134.411337 756.491337 138.780526 767.597641 150.31552 771.265938 168.167497 774.542738 184.113006 766.597193 200.89344 751.692105 210.0352 749.575241 211.342994 749.140261 212.595566 749.154779 214.974903 749.256265 230.809234 749.169262 246.643566 748.850286 262.477897 748.734318 267.890469 747.73387 273.289143 747.066917 279.34208 747.066917 279.34208 741.39776 306.168686 733.669705 328.473234 720.504539 363.954469 700.321755 395.330926 672.338469 421.948709 637.163593 455.42656 595.420672 476.951771 546.283154 484.590811 539.0336 485.717943 531.726043 486.413531 524.433006 487.317943L498.494073 487.317943C497.508136 487.10912 496.536693 486.78912 495.550753 486.719634 453.445325 483.811474 415.283653 470.2592 381.08024 446.702446 336.553457 416.021577 306.235809 375.1552 288.227909 325.746103 284.400143 315.2128 278.296013 296.581851 275.802167 278.910537 275.671673 277.352229 275.671673 276.280686 275.512185 275.209509 272.554364 255.562606 271.945403 235.83232 273.670795 216.073874 273.960777 212.790126 273.090831 211.190126 270.278005 209.409097 253.16905 198.570057 246.557451 177.601097 254.227482 159.401326L254.227482 159.401326ZM985.794816 912.188709C985.794816 964.9792 962.349751 985.655954 924.130085 985.655954L895.349358 985.655954C902.352421 970.990446 906.281691 954.696777 906.281691 937.526491 906.281691 880.979017 863.871781 833.949257 807.919689 824.069851 822.244827 845.358811 831.973705 886.892617 831.973705 934.646491 831.973705 952.818469 830.552795 970.057874 828.044471 985.655954L744.065573 985.655954C741.528247 970.057874 740.121819 952.818469 740.121819 934.646491 740.121819 886.87872 749.836251 845.358811 764.175872 824.069851 708.223781 833.963154 665.81387 880.979017 665.81387 937.526491 665.81387 954.696777 669.743104 970.990446 676.746203 985.655954L539.990528 985.655954 546.297673 976.764709C557.114002 965.10464 540.918491 958.634423 540.918491 958.634423L485.502866 958.634423C466.596023 959.942217 477.42686 978.072503 477.42686 978.072503L483.110513 985.642057 347.616282 985.642057C354.633856 970.976549 358.548615 954.68288 358.548615 937.512594 358.548615 880.96512 316.109707 833.934994 260.17212 824.055954 274.497247 845.344914 284.240651 886.87872 284.240651 934.632229 284.240651 952.804571 282.819738 970.043977 280.296891 985.642057L196.318018 985.642057C193.766173 970.043977 192.35976 952.804571 192.35976 934.632229 192.35976 886.864823 202.088664 845.344914 216.428292 824.055954 160.476204 833.949257 118.066293 880.96512 118.066293 937.512594 118.066293 954.68288 121.981056 970.976549 128.998627 985.642057L102.218759 985.642057C28.606753 985.642057 39.017117 904.201874 39.017117 904.201874L39.017117 670.220434C62.317195 540.873874 152.182711 620.727589 152.182711 620.727589L230.34744 703.753509C290.257785 750.060251 380.137797 750.060251 380.137797 750.060251L697.943918 750.060251C761.160046 750.060251 824.419694 692.580571 824.419694 692.580571L902.627913 612.726857C977.50133 558.46144 985.809335 706.939977 985.809335 706.939977L985.809335 912.188709 985.794816 912.188709Z" fill="#eb4f38"></path></g></g></svg>